<?xml version="1.0" standalone="no"?>
<!DOCTYPE svg PUBLIC "-//W3C//DTD SVG 1.1//EN" "http://www.w3.org/Graphics/SVG/1.1/DTD/svg11.dtd" >
<svg xmlns="http://www.w3.org/2000/svg">
<metadata>Generated by IcoMoon</metadata>
<defs>
<font id="kublikon" horiz-adv-x="1024">
<font-face units-per-em="1024" ascent="960" descent="-64" />
<missing-glyph horiz-adv-x="1024" />
<glyph unicode="&#x20;" horiz-adv-x="512" d="" />
<glyph unicode="&#xe600;" glyph-name="place" horiz-adv-x="1152" d="M576 928c-196.096 0-355.072-158.976-355.072-355.072 0-65.28 17.664-126.208 48.384-178.944l306.688-425.984 307.456 425.984 0.512 1.536c30.208 52.224 47.36 112.64 47.36 177.408-0.256 196.096-159.232 355.072-355.328 355.072zM577.024 317.184c-138.24 0-250.368 114.432-250.368 255.744s112.128 255.744 250.368 255.744c138.24 0 250.368-114.432 250.368-255.744s-112.128-255.744-250.368-255.744zM731.392 574.208c0-85.821-69.571-155.392-155.392-155.392s-155.392 69.571-155.392 155.392c0 85.821 69.571 155.392 155.392 155.392s155.392-69.571 155.392-155.392z" />
<glyph unicode="&#xe601;" glyph-name="close" d="M868.352 728.32l-79.104 79.104-277.248-277.248-277.248 277.248-79.104-79.104 277.248-277.248-277.248-277.248 79.104-78.848 277.248 277.248 277.248-277.248 79.104 78.848-277.248 277.248z" />
<glyph unicode="&#xe602;" glyph-name="down" d="M789.248 665.6l-277.248-277.248-277.248 277.248-79.104-78.848 356.352-356.352 79.104 78.848 277.248 277.504z" />
<glyph unicode="&#xe603;" glyph-name="dropdown" d="M512 527.104h-157.952l78.848-79.104 79.104-79.104 79.104 79.104 78.848 79.104z" />
<glyph unicode="&#xe604;" glyph-name="filter" d="M609.28 896h-545.28l-0.256-84.992 350.72-362.752v-246.784l194.816-201.472v448l350.464 363.008 0.256 84.992z" />
<glyph unicode="&#xe605;" glyph-name="full-logo" horiz-adv-x="1536" d="M1104.896 716.083l-273.203 157.696c-39.424 22.733-88.064 22.733-127.488 0l-273.101-157.696c-39.424-22.733-63.693-64.717-63.693-110.387v-315.392c0-45.568 24.371-87.552 63.693-110.387l273.101-157.696c39.424-22.733 88.064-22.733 127.488 0l273.203 157.696c39.424 22.733 63.693 64.717 63.693 110.387v315.392c0 45.568-24.269 87.552-63.693 110.387zM884.019 596.378v0c12.902-6.656 18.022-22.733 11.366-35.635l-42.394-81.92c-6.656-12.902-22.733-18.022-35.635-11.366v0c-12.902 6.656-18.022 22.733-11.366 35.635l42.291 82.022c6.758 12.8 22.835 17.92 35.738 11.264zM784.691 631.091c6.451 12.39 21.811 17.306 34.202 10.854l1.843-1.024c12.39-6.451 17.306-21.811 10.854-34.202l-28.672-55.501c-5.325 18.637-22.118 32.563-42.189 33.485l23.962 46.387zM702.054 636.109c6.451 12.39 21.811 17.306 34.202 10.854l1.843-1.024c12.39-6.451 17.306-21.811 10.854-34.202l-13.926-26.931h-59.494l26.522 51.302zM893.952 353.587l-11.469-33.997c-1.229-5.939-4.096-11.469-8.602-16.077l-19.866-19.763v-44.851h-204.8v80.691l-51.2 59.494c-6.758 8.090-10.854 18.534-10.854 29.901 0 4.608 0.717 9.114 1.946 13.312v0l33.894 122.675c6.451 13.926 19.558 24.166 35.328 26.522h85.504c17.408 0 31.642-14.234 31.642-31.642s-14.234-31.642-31.642-31.642h-59.802c0.205-8.294 6.963-15.053 15.36-15.053h78.746c0.922-30.413 25.702-54.784 56.32-54.784 0.102 0 0.102 0 0.205 0v-0.102h5.325c0.717-18.227 13.312-34.099 31.949-43.008 9.83-4.71 21.299-7.373 33.587-7.475l-11.571-34.202zM945.971 487.834l-30.003-58.163c-6.656-12.902-22.733-18.022-35.635-11.366v0c-12.902 6.656-18.022 22.733-11.366 35.635l30.003 58.163c6.656 12.902 22.733 18.022 35.635 11.366s18.022-22.733 11.366-35.635zM651.059 508.621h1.126c-0.41 0-0.717 0-1.126 0v0z" />
<glyph unicode="&#xe606;" glyph-name="heart" d="M897.024 477.696c38.912 40.192 62.976 95.232 62.976 155.648 0 123.648-100.352 224-224 224s-224-100.096-224-224c0 123.648-100.352 224-224 224s-224-100.096-224-224c0-58.112 22.016-110.848 58.368-150.784l389.632-443.904 385.024 439.040z" />
<glyph unicode="&#xe607;" glyph-name="logo" horiz-adv-x="1536" d="M858.624 493.978v0c-25.805 13.312-36.045 45.363-22.733 71.168l84.582 163.738c13.312 25.805 45.363 36.045 71.168 22.733v0c25.805-13.312 36.045-45.363 22.733-71.168l-84.582-163.738c-13.414-25.805-45.363-36.045-71.168-22.733zM984.269 395.981v0c-25.805 13.312-36.045 45.363-22.733 71.168l60.006 116.122c13.312 25.805 45.363 36.045 71.168 22.733v0c25.805-13.312 36.045-45.363 22.733-71.168l-60.006-116.122c-13.414-25.907-45.466-36.045-71.168-22.733zM865.28 840.704l-3.789 1.946c-24.781 12.8-55.501 2.97-68.301-21.811l-47.616-92.262c40.141-1.843 73.728-29.696 84.275-66.97l57.242 110.899c12.8 24.678 2.97 55.398-21.811 68.198zM722.022 782.541c12.8 24.781 2.97 55.501-21.811 68.301l-3.789 1.946c-24.678 12.698-55.398 2.867-68.198-21.811l-52.736-102.195h118.784l27.75 53.76zM967.578 350.618c-37.171 17.715-62.464 49.357-63.795 85.811h-10.752v0.205c-0.102 0-0.205 0-0.41 0-61.133 0-110.797 48.742-112.538 109.466h-157.184c-16.794 0-30.31 13.414-30.72 30.003h119.296c34.714 0 63.078 28.365 63.078 63.078s-28.365 63.078-63.078 63.078h-170.803c-31.437-4.813-57.651-25.19-70.554-53.043l-67.686-245.146v0.102c-2.56-8.499-3.891-17.408-3.891-26.624 0-22.733 8.192-43.622 21.709-59.802v0l102.298-118.886v-161.178h409.088v89.498l39.629 39.629c9.114 9.114 14.848 20.275 17.203 32.051v0l22.938 67.891 23.245 68.915c-24.474 0.102-47.411 5.53-67.072 14.95zM526.336 576.205v0.102c0.717-0.102 1.536-0.102 2.355-0.102h-2.355z" />
<glyph unicode="&#xe608;" glyph-name="plus" d="M868.352 395.264v111.616h-300.544v300.544h-111.616v-300.544h-300.544v-111.616h300.544v-300.288h111.616v300.288z" />
<glyph unicode="&#xe609;" glyph-name="posts" d="M627.2 320h-230.4c-7.168 0-12.8 5.632-12.8 12.8v230.4c0 7.168 5.632 12.8 12.8 12.8h230.4c7.168 0 12.8-5.632 12.8-12.8v-230.4c0-7.168-5.632-12.8-12.8-12.8zM627.2 638.208h-230.4c-7.168 0-12.8 5.632-12.8 12.8v230.4c0 7.168 5.632 12.8 12.8 12.8h230.4c7.168 0 12.8-5.632 12.8-12.8v-230.4c0-7.168-5.632-12.8-12.8-12.8zM945.408 638.208h-230.4c-7.168 0-12.8 5.632-12.8 12.8v230.4c0 7.168 5.632 12.8 12.8 12.8h230.4c7.168 0 12.8-5.632 12.8-12.8v-230.4c0-7.168-5.888-12.8-12.8-12.8zM945.408 320h-230.4c-7.168 0-12.8 5.632-12.8 12.8v230.4c0 7.168 5.632 12.8 12.8 12.8h230.4c7.168 0 12.8-5.632 12.8-12.8v-230.4c0-7.168-5.888-12.8-12.8-12.8zM945.408 1.792h-230.4c-7.168 0-12.8 5.632-12.8 12.8v230.4c0 7.168 5.632 12.8 12.8 12.8h230.4c7.168 0 12.8-5.632 12.8-12.8v-230.4c0-6.912-5.888-12.8-12.8-12.8zM627.2 1.792h-230.4c-7.168 0-12.8 5.632-12.8 12.8v230.4c0 7.168 5.632 12.8 12.8 12.8h230.4c7.168 0 12.8-5.632 12.8-12.8v-230.4c0-6.912-5.632-12.8-12.8-12.8zM308.992 320h-230.4c-7.168 0-12.8 5.632-12.8 12.8v230.4c0 7.168 5.632 12.8 12.8 12.8h230.4c7.168 0 12.8-5.632 12.8-12.8v-230.4c0-7.168-5.632-12.8-12.8-12.8zM308.992 638.208h-230.4c-7.168 0-12.8 5.632-12.8 12.8v230.4c0 7.168 5.632 12.8 12.8 12.8h230.4c7.168 0 12.8-5.632 12.8-12.8v-230.4c0-7.168-5.632-12.8-12.8-12.8zM308.992 1.792h-230.4c-7.168 0-12.8 5.632-12.8 12.8v230.4c0 7.168 5.632 12.8 12.8 12.8h230.4c7.168 0 12.8-5.632 12.8-12.8v-230.4c0-6.912-5.632-12.8-12.8-12.8z" />
<glyph unicode="&#xe60a;" glyph-name="products" d="M899.84 523.008l51.2 273.408h-593.408l-53.76 60.672h-230.912v-60.672h124.416v-571.648h753.664v93.44h-660.48v87.296zM951.040 108.544c0-38.457-31.175-69.632-69.632-69.632s-69.632 31.175-69.632 69.632c0 38.457 31.175 69.632 69.632 69.632s69.632-31.175 69.632-69.632zM336.64 108.8c0-38.457-31.175-69.632-69.632-69.632s-69.632 31.175-69.632 69.632c0 38.457 31.175 69.632 69.632 69.632s69.632-31.175 69.632-69.632z" />
<glyph unicode="&#xe60b;" glyph-name="tag" d="M921.6 541.184v316.416h-316.416l-502.784-502.784 316.416-316.416 502.784 502.784zM719.872 740.864c46.848 0 84.736-37.888 84.736-84.736s-37.888-84.736-84.736-84.736c-46.848 0-84.736 37.888-84.736 84.736 0 46.592 37.888 84.736 84.736 84.736z" />
<glyph unicode="&#xe60c;" glyph-name="up" d="M234.752 230.4l277.248 277.248 277.248-277.248 79.104 78.848-356.352 356.352-79.104-78.848-277.248-277.504z" />
<glyph unicode="&#xe60d;" glyph-name="viewed" horiz-adv-x="1152" d="M576 832.768c-214.272 0-458.752-236.8-513.024-384.768 54.272-147.968 298.752-384.768 513.024-384.768s458.752 236.8 513.024 384.768c-54.272 147.968-298.752 384.768-513.024 384.768zM576 195.328c-139.52 0-252.672 113.152-252.672 252.672s113.152 252.672 252.672 252.672 252.672-113.152 252.672-252.672c0-139.52-113.152-252.672-252.672-252.672zM735.488 448c0-88.083-71.405-159.488-159.488-159.488s-159.488 71.405-159.488 159.488c0 88.083 71.405 159.488 159.488 159.488s159.488-71.405 159.488-159.488z" />
<glyph unicode="&#xe60e;" glyph-name="web" horiz-adv-x="1152" d="M781.568 651.776l-284.928-120.832-122.368-287.232 284.928 120.832zM576 896c-247.296 0-448-200.704-448-448s200.704-448 448-448 448 200.704 448 448-200.704 448-448 448zM622.848 96.768v80.896h-93.696v-80.896c-157.696 20.736-282.88 145.408-304.128 303.104h81.92v93.696h-82.432c20.48 158.72 145.92 284.672 304.64 305.664v-83.456h93.696v83.456c158.72-20.992 284.16-146.944 304.64-305.664h-82.432v-93.696h81.92c-21.248-157.696-146.432-282.368-304.128-303.104z" />
<glyph unicode="&#xe60f;" glyph-name="left" horiz-adv-x="1152" d="M793.6 170.752l-277.248 277.248 277.248 277.248-78.848 79.104-356.352-356.352 78.848-79.104 277.504-277.248z" />
<glyph unicode="&#xe610;" glyph-name="right" horiz-adv-x="1152" d="M358.4 725.248l277.248-277.248-277.248-277.248 78.848-79.104 356.352 356.352-78.848 79.104-277.504 277.248z" />
<glyph unicode="&#xe611;" glyph-name="refresh" horiz-adv-x="1152" d="M320 578.56h130.816v-129.536l206.336 206.336-206.336 206.336v-129.536h-284.416v-568.32h284.672v153.6h-131.072zM700.928 732.16v-153.6h131.072v-261.12h-131.072v129.536l-206.336-206.336 206.336-206.336v129.536h284.672v568.32z" />
<glyph unicode="&#xe612;" glyph-name="min-size" horiz-adv-x="1152" d="M1206.784 154.624v81.408h-291.84v-294.4h82.688v212.992zM997.632 954.368h-82.688v-294.4h291.84v81.408h-209.152zM-54.784 741.376v-81.408h291.84v294.4h-82.688v-212.992zM154.368-58.368h82.688v294.4h-291.84v-81.408h209.152zM914.944 236.032h-677.888v423.936h677.632v-423.936zM390.656 389.632h370.432v116.736h-370.432v-116.736z" />
<glyph unicode="&#xe613;" glyph-name="max-size" horiz-adv-x="1152" d="M985.6 163.84h-819.2v568.32h819.2v-568.32zM320 317.44h512v261.12h-512v-261.12zM832 104.448v-81.408h291.84v294.4h-82.944v-212.992zM1040.896 578.56h82.944v294.4h-291.84v-81.408h208.896zM320 791.552v81.408h-291.84v-294.4h82.944v212.992zM111.104 317.44h-82.944v-294.4h291.84v81.408h-208.896z" />
<glyph unicode="&#xe614;" glyph-name="code" horiz-adv-x="1280" d="M837.12 725.248l277.248-277.248-277.248-277.248 78.848-79.104 356.352 356.352-356.352 356.352zM442.88 170.752l-277.248 277.248 277.248 277.248-78.848 79.104-356.352-356.352 356.352-356.352zM718.024 816.071l73.114-23.508-229.129-712.614-73.114 23.508 229.129 712.614z" />
</font>
</defs>
</svg>
