<?xml version="1.0" encoding="utf-8"?>
<!-- Generator: Adobe Illustrator 18.0.0, SVG Export Plug-In . SVG Version: 6.00 Build 0)  -->
<!DOCTYPE svg PUBLIC "-//W3C//DTD SVG 1.1//EN" "http://www.w3.org/Graphics/SVG/1.1/DTD/svg11.dtd">
<svg version="1.1" xmlns="http://www.w3.org/2000/svg" xmlns:xlink="http://www.w3.org/1999/xlink" x="0px" y="0px"
	 viewBox="0 0 500 400" enable-background="new 0 0 500 400" xml:space="preserve">
<g id="frame" display="none">
	<rect x="75" y="25" display="inline" fill="#E0E0E0" width="350" height="350"/>
</g>
<g id="heart" display="none">
	<path display="inline" d="M400.4,188.4c15.2-15.7,24.6-37.2,24.6-60.8c0-48.3-39.2-87.5-87.5-87.5S250,79.2,250,127.6
		c0-48.3-39.2-87.5-87.5-87.5S75,79.2,75,127.6c0,22.7,8.6,43.3,22.8,58.9L250,359.9L400.4,188.4z"/>
</g>
<g id="filter" display="none">
	<polygon display="inline" points="288,25 212,25 75,25 74.9,58.2 211.9,199.9 211.9,296.3 288,375 288,200 424.9,58.2 425,25 	"/>
</g>
<g id="place" display="none">
	<g display="inline">
		<path d="M250,12.5c-76.6,0-138.7,62.1-138.7,138.7c0,25.5,6.9,49.3,18.9,69.9L250,387.5l120.1-166.4l0.2-0.6
			c11.8-20.4,18.5-44,18.5-69.3C388.7,74.6,326.6,12.5,250,12.5z M250.4,251.1c-54,0-97.8-44.7-97.8-99.9
			c0-55.2,43.8-99.9,97.8-99.9c54,0,97.8,44.7,97.8,99.9C348.2,206.4,304.4,251.1,250.4,251.1z"/>
		<circle cx="250" cy="150.7" r="60.7"/>
	</g>
</g>
<g id="refresh" display="none">
	<g display="inline">
		<path d="M165.3,252.3c-23.7-38.4-18.9-89.3,14.4-122.5s84.2-38,122.5-14.4l28.3-28.3C276.3,48.4,200.6,53.4,152,102
			c-25.3,25.3-38.7,57.8-40.4,90.9l-52.3,32.3L165.3,252.3z"/>
		<path d="M439.3,172.9l-105.8-27.1c21,32.2,21.4,73.9,1.3,106.5c-4,6.5-8.8,12.6-14.4,18.2c-33.9,33.9-86.1,38.2-124.7,13.1
			l-28.2,28.2c54.3,40.2,131.3,35.7,180.6-13.5c13.6-13.6,23.7-29.2,30.5-45.9c6.3-15.6,9.7-32.2,10.1-48.8L439.3,172.9z"/>
	</g>
</g>
<g id="refresh_1_" display="none">
	<rect x="150" y="149" display="inline" fill="none" width="200" height="102"/>
	<polygon display="inline" points="150,149 201.1,149 201.1,199.6 281.7,119 201.1,38.4 201.1,89 90,89 90,311 201.2,311 201.2,251 
		150,251 	"/>
	<polygon display="inline" points="298.8,89 298.8,149 350,149 350,251 298.8,251 298.8,200.4 218.2,281 298.8,361.6 298.8,311 
		410,311 410,89 	"/>
</g>
<g id="max-size" display="none">
	<g display="inline">
		<path d="M410,311H90V89h320V311z M150,251h200V149H150V251z"/>
	</g>
	<rect x="150" y="149" display="inline" fill="none" width="200" height="102"/>
	<polygon display="inline" points="350,334.2 350,366 464,366 464,251 431.6,251 431.6,334.2 	"/>
	<polygon display="inline" points="431.6,149 464,149 464,34 350,34 350,65.8 431.6,65.8 	"/>
	<polygon display="inline" points="150,65.8 150,34 36,34 36,149 68.4,149 68.4,65.8 	"/>
	<polygon display="inline" points="68.4,251 36,251 36,366 150,366 150,334.2 68.4,334.2 	"/>
</g>
<g id="min-size" display="none">
	<rect x="150" y="149" display="inline" fill="none" width="200" height="102"/>
	<polygon display="inline" points="496.4,314.6 496.4,282.8 382.4,282.8 382.4,397.8 414.7,397.8 414.7,314.6 	"/>
	<polygon display="inline" points="414.7,2.2 382.4,2.2 382.4,117.2 496.4,117.2 496.4,85.4 414.7,85.4 	"/>
	<polygon display="inline" points="3.6,85.4 3.6,117.2 117.6,117.2 117.6,2.2 85.3,2.2 85.3,85.4 	"/>
	<polygon display="inline" points="85.3,397.8 117.6,397.8 117.6,282.8 3.6,282.8 3.6,314.6 85.3,314.6 	"/>
	<g display="inline">
		<path d="M382.4,282.8H117.6V117.2h264.7V282.8z M177.6,222.8h144.7v-45.6H177.6V222.8z"/>
	</g>
</g>
<g id="code">
	<polygon points="327,91.7 435.3,200 327,308.3 357.8,339.2 466.1,230.9 497,200 466.1,169.1 357.8,60.8 	"/>
	<polygon points="173,308.3 64.7,200 173,91.7 142.2,60.8 33.9,169.1 3,200 33.9,230.9 142.2,339.2 	"/>
	<g>
		<rect x="235" y="53.8" transform="matrix(0.952 0.3061 -0.3061 0.952 73.2262 -66.9288)" width="30" height="292.4"/>
	</g>
</g>
<g id="search" display="none">
</g>
<g id="tag" display="none">
	<circle display="inline" fill="none" cx="346.2" cy="118.8" r="33.1"/>
	<path display="inline" d="M410,163.6V40H286.4L90,236.4L213.6,360L410,163.6z M331.2,85.6c18.3,0,33.1,14.8,33.1,33.1
		c0,18.3-14.8,33.1-33.1,33.1c-18.3,0-33.1-14.8-33.1-33.1C298.1,100.5,312.9,85.6,331.2,85.6z"/>
</g>
<g id="viewed" display="none">
	<path display="inline" d="M250,49.7c-83.7,0-179.2,92.5-200.4,150.3C70.8,257.8,166.3,350.3,250,350.3S429.2,257.8,450.4,200
		C429.2,142.2,333.7,49.7,250,49.7z M250,298.7c-54.5,0-98.7-44.2-98.7-98.7c0-54.5,44.2-98.7,98.7-98.7s98.7,44.2,98.7,98.7
		C348.7,254.5,304.5,298.7,250,298.7z"/>
	<circle display="inline" cx="250" cy="200" r="62.3"/>
</g>
<g id="web" display="none">
	<polygon display="inline" points="330.3,120.4 219,167.6 171.2,279.8 282.5,232.6 	"/>
	<path display="inline" d="M250,25c-96.6,0-175,78.4-175,175s78.4,175,175,175s175-78.4,175-175S346.6,25,250,25z M268.3,337.2
		v-31.6h-36.6v31.6c-61.6-8.1-110.5-56.8-118.8-118.4h32v-36.6h-32.2c8-62,57-111.2,119-119.4v32.6h36.6V62.8
		c62,8.2,111,57.4,119,119.4h-32.2v36.6h32C378.8,280.4,329.9,329.1,268.3,337.2z"/>
</g>
<g id="plus" display="none">
	<rect x="110.8" y="220.6" display="inline" fill="none" width="117.4" height="117.4"/>
	<rect x="110.8" y="59.6" display="inline" fill="none" width="117.4" height="117.4"/>
	<rect x="271.8" y="59.6" display="inline" fill="none" width="117.4" height="117.4"/>
	<rect x="271.8" y="220.6" display="inline" fill="none" width="117.4" height="117.4"/>
	<polygon display="inline" points="389.2,220.6 389.2,177 271.8,177 271.8,59.6 228.2,59.6 228.2,177 110.8,177 110.8,220.6 
		228.2,220.6 228.2,337.9 271.8,337.9 271.8,220.6 	"/>
</g>
<g id="close" display="none">
	<polygon display="inline" points="389.2,90.5 358.3,59.6 250,167.9 141.7,59.6 110.8,90.5 219.1,198.8 110.8,307.1 141.7,337.9 
		250,229.6 358.3,337.9 389.2,307.1 280.9,198.8 	"/>
</g>
<g id="down" display="none">
	<polygon display="inline" points="358.3,115 250,223.3 141.7,115 110.8,145.8 219.1,254.2 250,285 280.9,254.2 389.2,145.8 	"/>
</g>
<g id="up" display="none">
	<polygon display="inline" points="141.7,285 250,176.7 358.3,285 389.2,254.2 280.9,145.8 250,115 219.1,145.8 110.8,254.2 	"/>
</g>
<g id="right" display="none">
	<polygon display="inline" points="165,91.7 273.3,200 165,308.3 195.8,339.2 304.2,230.9 335,200 304.2,169.1 195.8,60.8 	"/>
</g>
<g id="left" display="none">
	<polygon display="inline" points="335,308.3 226.7,200 335,91.7 304.2,60.8 195.8,169.1 165,200 195.8,230.9 304.2,339.2 	"/>
</g>
<g id="dropdown" display="none">
	<polygon display="inline" points="250,169.1 188.3,169.1 219.1,200 250,230.9 280.9,200 311.7,169.1 	"/>
</g>
<g id="posts" display="none">
	<path display="inline" d="M295,250h-90c-2.8,0-5-2.2-5-5v-90c0-2.8,2.2-5,5-5h90c2.8,0,5,2.2,5,5v90C300,247.8,297.8,250,295,250z"
		/>
	<path display="inline" d="M295,125.7h-90c-2.8,0-5-2.2-5-5v-90c0-2.8,2.2-5,5-5h90c2.8,0,5,2.2,5,5v90
		C300,123.5,297.8,125.7,295,125.7z"/>
	<path display="inline" d="M419.3,125.7h-90c-2.8,0-5-2.2-5-5v-90c0-2.8,2.2-5,5-5h90c2.8,0,5,2.2,5,5v90
		C424.3,123.5,422,125.7,419.3,125.7z"/>
	<path display="inline" d="M419.3,250h-90c-2.8,0-5-2.2-5-5v-90c0-2.8,2.2-5,5-5h90c2.8,0,5,2.2,5,5v90
		C424.3,247.8,422,250,419.3,250z"/>
	<path display="inline" d="M419.3,374.3h-90c-2.8,0-5-2.2-5-5v-90c0-2.8,2.2-5,5-5h90c2.8,0,5,2.2,5,5v90
		C424.3,372,422,374.3,419.3,374.3z"/>
	<path display="inline" d="M295,374.3h-90c-2.8,0-5-2.2-5-5v-90c0-2.8,2.2-5,5-5h90c2.8,0,5,2.2,5,5v90
		C300,372,297.8,374.3,295,374.3z"/>
	<path display="inline" d="M170.7,250h-90c-2.8,0-5-2.2-5-5v-90c0-2.8,2.2-5,5-5h90c2.8,0,5,2.2,5,5v90
		C175.7,247.8,173.5,250,170.7,250z"/>
	<path display="inline" d="M170.7,125.7h-90c-2.8,0-5-2.2-5-5v-90c0-2.8,2.2-5,5-5h90c2.8,0,5,2.2,5,5v90
		C175.7,123.5,173.5,125.7,170.7,125.7z"/>
	<path display="inline" d="M170.7,374.3h-90c-2.8,0-5-2.2-5-5v-90c0-2.8,2.2-5,5-5h90c2.8,0,5,2.2,5,5v90
		C175.7,372,173.5,374.3,170.7,374.3z"/>
</g>
<g id="products" display="none">
	<g display="inline">
		<polygon points="401.5,170.7 421.5,63.9 189.7,63.9 168.7,40.2 78.5,40.2 78.5,63.9 127.1,63.9 127.1,173.2 127.1,223.1 
			127.1,250.7 127.1,287.2 163.5,287.2 421.5,287.2 421.5,250.7 163.5,250.7 163.5,216.6 		"/>
		<circle cx="394.3" cy="332.6" r="27.2"/>
		<circle cx="154.3" cy="332.5" r="27.2"/>
	</g>
</g>
<g id="logo" display="none">
	<g display="inline">
		<path d="M399.1,50.9c0,0-44.7-1.3-89.4,21.1c-13.7,6.2-28.6,16.1-41,28.6c-20.1,20.1-51.3,57-75.8,86.9h-54.5l-24.8,37.2
			l42.1,11.4c0.1,1.5,0.5,3.6,1.7,6.5l-6.5,14.4c0,0-2.5,5,16.1,24.8c19.9,19.9,26.1,17.4,26.1,17.4l15.4-7c2.3,0.7,4,1,5.1,1
			l11.7,43.3l37.2-24.8v-56.2c30.1-24.3,67-54.9,86.9-74.2c12.4-12.4,22.3-27.3,29.8-41C400.3,95.6,399.1,50.9,399.1,50.9z
			 M312.1,162.7c-13.7,0-24.8-11.2-24.8-24.8c0-13.7,11.2-24.8,24.8-24.8c13.7,0,24.8,11.2,24.8,24.8
			C337,151.5,325.8,162.7,312.1,162.7z M181.8,311.7c2.5,1.3,3.7,2.5,6.2,3.7c-2.5,2.5-5,6.2-7.5,8.7
			c-28.6,28.6-79.4,24.8-79.4,24.8s-3.7-50.9,24.8-79.4c2.5-2.5,6.2-5,8.7-7.5c1.2,2.5,2.5,3.7,3.7,6.2
			c-18.6,23.6-16.1,59.6-16.1,59.6S158.2,330.3,181.8,311.7z"/>
	</g>
</g>
<g id="full_logo" display="none">
	<g display="inline">
		<path d="M283.2,154c-7.4,0-13.5,6-13.5,13.5c0,7.4,6,13.5,13.5,13.5c7.4,0,13.5-6.1,13.5-13.5C296.7,160,290.6,154,283.2,154z"/>
		<path d="M381.6,95.3l-17-9.8l-89.7-51.8c-15.4-8.9-34.4-8.9-49.8,0L118.4,95.3c-15.4,8.9-24.9,25.3-24.9,43.1v123.2
			c0,17.8,9.5,34.2,24.9,43.1l17,9.8l89.7,51.8c15.4,8.9,34.4,8.9,49.8,0l106.7-61.6c15.4-8.9,24.9-25.3,24.9-43.1V138.4
			C406.5,120.6,397,104.2,381.6,95.3z M211.9,268.3c-15.5,15.5-43,13.5-43,13.5s-2-27.6,13.5-43c1.3-1.4,3.4-2.7,4.7-4
			c0.7,1.3,1.3,2,2,3.4c-10.1,12.8-8.7,32.3-8.7,32.3s19.5,1.3,32.3-8.7c1.3,0.7,2,1.3,3.4,2C214.6,265,213.3,267,211.9,268.3z
			 M319.6,168.8c-4,7.4-9.4,15.5-16.1,22.2c-10.8,10.4-30.8,27-47.1,40.2v30.5L236.2,275l-6.3-23.5c-0.6,0-1.5-0.1-2.8-0.5l-8.4,3.8
			c0,0-3.4,1.4-14.1-9.4c-10.1-10.8-8.7-13.5-8.7-13.5l3.5-7.8c-0.6-1.6-0.8-2.7-0.9-3.5l-22.8-6.2l13.5-20.2h29.6
			c13.3-16.2,30.2-36.2,41.1-47.1c6.7-6.7,14.8-12.1,22.2-15.5c24.2-12.1,48.4-11.4,48.4-11.4S331,144.5,319.6,168.8z"/>
	</g>
</g>
</svg>
