<?xml version="1.0" encoding="utf-8"?>
<!-- Generator: Adobe Illustrator 18.0.0, SVG Export Plug-In . SVG Version: 6.00 Build 0)  -->
<!DOCTYPE svg PUBLIC "-//W3C//DTD SVG 1.1//EN" "http://www.w3.org/Graphics/SVG/1.1/DTD/svg11.dtd">
<svg version="1.1" xmlns="http://www.w3.org/2000/svg" xmlns:xlink="http://www.w3.org/1999/xlink" x="0px" y="0px"
	 viewBox="0 0 400 400" enable-background="new 0 0 400 400" xml:space="preserve">
<g id="frame" display="none">
	<rect x="25" y="25" display="inline" fill="#E0E0E0" width="350" height="350"/>
</g>
<g id="heart" display="none">
	<path display="inline" d="M350.4,188.4c15.2-15.7,24.6-37.2,24.6-60.8c0-48.3-39.2-87.5-87.5-87.5S200,79.2,200,127.6
		c0-48.3-39.2-87.5-87.5-87.5S25,79.2,25,127.6c0,22.7,8.6,43.3,22.8,58.9L200,359.9L350.4,188.4z"/>
</g>
<g id="filter">
	<polygon points="238,25 162,25 25,25 24.9,58.2 161.9,199.9 161.9,296.3 238,375 238,200 374.9,58.2 375,25 	"/>
</g>
<g id="place" display="none">
	<path display="inline" d="M200,25C135.5,25,83.3,77.3,83.3,141.7c0,21.4,5.8,41.5,15.9,58.8L200,374.9l101-174.4l0.1-0.5
		c9.9-17.1,15.6-37,15.6-58.3C316.7,77.3,264.5,25,200,25z M200.4,225.8c-45.4,0-82.2-37.6-82.2-84c0-46.4,36.8-84,82.2-84
		c45.4,0,82.2,37.6,82.2,84C282.6,188.1,245.8,225.8,200.4,225.8z"/>
	<circle display="inline" cx="200" cy="141.3" r="51.1"/>
</g>
<g id="tag" display="none">
	<circle display="inline" fill="none" cx="296.2" cy="118.8" r="33.1"/>
	<path display="inline" d="M360,163.6V40H236.4L40,236.4L163.6,360L360,163.6z M281.2,85.6c18.3,0,33.1,14.8,33.1,33.1
		c0,18.3-14.8,33.1-33.1,33.1c-18.3,0-33.1-14.8-33.1-33.1C248.1,100.5,262.9,85.6,281.2,85.6z"/>
</g>
<g id="viewed" display="none">
	<circle display="inline" cx="200" cy="200" r="49"/>
	<path display="inline" d="M200,99.7c-83.7,0-154.2,42.5-175.4,100.3c21.2,57.8,91.7,100.3,175.4,100.3S354.2,257.8,375.4,200
		C354.2,142.2,283.7,99.7,200,99.7z M200,279.5c-43.9,0-79.5-35.6-79.5-79.5c0-43.9,35.6-79.5,79.5-79.5s79.5,35.6,79.5,79.5
		C279.5,243.9,243.9,279.5,200,279.5z"/>
</g>
<g id="web" display="none">
	<circle display="inline" cx="200" cy="200" r="175"/>
</g>
<g id="plus" display="none">
	<rect x="60.8" y="220.6" display="inline" fill="none" width="117.4" height="117.4"/>
	<rect x="60.8" y="59.6" display="inline" fill="none" width="117.4" height="117.4"/>
	<rect x="221.8" y="59.6" display="inline" fill="none" width="117.4" height="117.4"/>
	<rect x="221.8" y="220.6" display="inline" fill="none" width="117.4" height="117.4"/>
	<polygon display="inline" points="339.2,220.6 339.2,177 221.8,177 221.8,59.6 178.2,59.6 178.2,177 60.8,177 60.8,220.6 
		178.2,220.6 178.2,337.9 221.8,337.9 221.8,220.6 	"/>
</g>
<g id="close" display="none">
	<polygon display="inline" points="339.2,90.5 308.3,59.6 200,167.9 91.7,59.6 60.8,90.5 169.1,198.8 60.8,307.1 91.7,337.9 
		200,229.6 308.3,337.9 339.2,307.1 230.9,198.8 	"/>
</g>
<g id="down" display="none">
	<polygon display="inline" points="308.3,115 200,223.3 91.7,115 60.8,145.8 169.1,254.2 200,285 230.9,254.2 339.2,145.8 	"/>
</g>
<g id="up" display="none">
	<polygon display="inline" points="91.7,285 200,176.7 308.3,285 339.2,254.2 230.9,145.8 200,115 169.1,145.8 60.8,254.2 	"/>
</g>
<g id="dropdown" display="none">
	<polygon display="inline" points="200,169.1 138.3,169.1 169.1,200 200,230.9 230.9,200 261.7,169.1 	"/>
</g>
<g id="posts" display="none">
	<path display="inline" d="M245,250h-90c-2.8,0-5-2.2-5-5v-90c0-2.8,2.2-5,5-5h90c2.8,0,5,2.2,5,5v90C250,247.8,247.8,250,245,250z"
		/>
	<path display="inline" d="M245,125.7h-90c-2.8,0-5-2.2-5-5v-90c0-2.8,2.2-5,5-5h90c2.8,0,5,2.2,5,5v90
		C250,123.5,247.8,125.7,245,125.7z"/>
	<path display="inline" d="M369.3,125.7h-90c-2.8,0-5-2.2-5-5v-90c0-2.8,2.2-5,5-5h90c2.8,0,5,2.2,5,5v90
		C374.3,123.5,372,125.7,369.3,125.7z"/>
	<path display="inline" d="M369.3,250h-90c-2.8,0-5-2.2-5-5v-90c0-2.8,2.2-5,5-5h90c2.8,0,5,2.2,5,5v90
		C374.3,247.8,372,250,369.3,250z"/>
	<path display="inline" d="M369.3,374.3h-90c-2.8,0-5-2.2-5-5v-90c0-2.8,2.2-5,5-5h90c2.8,0,5,2.2,5,5v90
		C374.3,372,372,374.3,369.3,374.3z"/>
	<path display="inline" d="M245,374.3h-90c-2.8,0-5-2.2-5-5v-90c0-2.8,2.2-5,5-5h90c2.8,0,5,2.2,5,5v90
		C250,372,247.8,374.3,245,374.3z"/>
	<path display="inline" d="M120.7,250h-90c-2.8,0-5-2.2-5-5v-90c0-2.8,2.2-5,5-5h90c2.8,0,5,2.2,5,5v90
		C125.7,247.8,123.5,250,120.7,250z"/>
	<path display="inline" d="M120.7,125.7h-90c-2.8,0-5-2.2-5-5v-90c0-2.8,2.2-5,5-5h90c2.8,0,5,2.2,5,5v90
		C125.7,123.5,123.5,125.7,120.7,125.7z"/>
	<path display="inline" d="M120.7,374.3h-90c-2.8,0-5-2.2-5-5v-90c0-2.8,2.2-5,5-5h90c2.8,0,5,2.2,5,5v90
		C125.7,372,123.5,374.3,120.7,374.3z"/>
</g>
<g id="products" display="none">
	<g display="inline">
		<polygon points="351.5,170.7 371.5,63.9 139.7,63.9 118.7,40.2 28.5,40.2 28.5,63.9 77.1,63.9 77.1,173.2 77.1,223.1 77.1,250.7 
			77.1,287.2 113.5,287.2 371.5,287.2 371.5,250.7 113.5,250.7 113.5,216.6 		"/>
		<circle cx="344.3" cy="332.6" r="27.2"/>
		<circle cx="104.3" cy="332.5" r="27.2"/>
	</g>
</g>
<g id="logo" display="none">
	<g display="inline">
		<path d="M349.1,50.9c0,0-44.7-1.3-89.4,21.1c-13.7,6.2-28.6,16.1-41,28.6c-20.1,20.1-51.3,57-75.8,86.9H88.3l-24.8,37.2l42.1,11.4
			c0.1,1.5,0.5,3.6,1.7,6.5l-6.5,14.4c0,0-2.5,5,16.1,24.8c19.9,19.9,26.1,17.4,26.1,17.4l15.4-7c2.3,0.7,4,1,5.1,1l11.7,43.3
			l37.2-24.8v-56.2c30.1-24.3,67-54.9,86.9-74.2c12.4-12.4,22.3-27.3,29.8-41C350.3,95.6,349.1,50.9,349.1,50.9z M262.1,162.7
			c-13.7,0-24.8-11.2-24.8-24.8c0-13.7,11.2-24.8,24.8-24.8c13.7,0,24.8,11.2,24.8,24.8C287,151.5,275.8,162.7,262.1,162.7z
			 M131.8,311.7c2.5,1.3,3.7,2.5,6.2,3.7c-2.5,2.5-5,6.2-7.5,8.7c-28.6,28.6-79.4,24.8-79.4,24.8s-3.7-50.9,24.8-79.4
			c2.5-2.5,6.2-5,8.7-7.5c1.2,2.5,2.5,3.7,3.7,6.2c-18.6,23.6-16.1,59.6-16.1,59.6S108.2,330.3,131.8,311.7z"/>
	</g>
</g>
<g id="full_logo" display="none">
	<g display="inline">
		<path d="M233.2,154c-7.4,0-13.5,6-13.5,13.5c0,7.4,6,13.5,13.5,13.5c7.4,0,13.5-6.1,13.5-13.5C246.7,160,240.6,154,233.2,154z"/>
		<path d="M331.6,95.3l-17-9.8l-89.7-51.8c-15.4-8.9-34.4-8.9-49.8,0L68.4,95.3c-15.4,8.9-24.9,25.3-24.9,43.1v123.2
			c0,17.8,9.5,34.2,24.9,43.1l17,9.8l89.7,51.8c15.4,8.9,34.4,8.9,49.8,0l106.7-61.6c15.4-8.9,24.9-25.3,24.9-43.1V138.4
			C356.5,120.6,347,104.2,331.6,95.3z M161.9,268.3c-15.5,15.5-43,13.5-43,13.5s-2-27.6,13.5-43c1.3-1.4,3.4-2.7,4.7-4
			c0.7,1.3,1.3,2,2,3.4c-10.1,12.8-8.7,32.3-8.7,32.3s19.5,1.3,32.3-8.7c1.3,0.7,2,1.3,3.4,2C164.6,265,163.3,267,161.9,268.3z
			 M269.6,168.8c-4,7.4-9.4,15.5-16.1,22.2c-10.8,10.4-30.8,27-47.1,40.2v30.5L186.2,275l-6.3-23.5c-0.6,0-1.5-0.1-2.8-0.5l-8.4,3.8
			c0,0-3.4,1.4-14.1-9.4c-10.1-10.8-8.7-13.5-8.7-13.5l3.5-7.8c-0.6-1.6-0.8-2.7-0.9-3.5l-22.8-6.2l13.5-20.2h29.6
			c13.3-16.2,30.2-36.2,41.1-47.1c6.7-6.7,14.8-12.1,22.2-15.5c24.2-12.1,48.4-11.4,48.4-11.4S281,144.5,269.6,168.8z"/>
	</g>
</g>
</svg>
