<?xml version="1.0" encoding="utf-8"?>
<!-- Generator: Adobe Illustrator 18.0.0, SVG Export Plug-In . SVG Version: 6.00 Build 0)  -->
<!DOCTYPE svg PUBLIC "-//W3C//DTD SVG 1.1//EN" "http://www.w3.org/Graphics/SVG/1.1/DTD/svg11.dtd">
<svg version="1.1" id="Layer_1" xmlns="http://www.w3.org/2000/svg" xmlns:xlink="http://www.w3.org/1999/xlink" x="0px" y="0px"
	 viewBox="0 0 1500 1000" enable-background="new 0 0 1500 1000" xml:space="preserve">
<g id="frame" display="none">
	<rect x="312.5" y="62.5" display="inline" fill="#E0E0E0" width="875" height="875"/>
</g>
<g id="heart" display="none">
	<path display="inline" d="M1126,471c38-39.2,61.5-93,61.5-152c0-120.8-98-218.8-218.8-218.8S750,198,750,319
		c0-120.8-98-218.8-218.8-218.8S312.5,198,312.5,319c0,56.8,21.5,108.2,57,147.2L750,899.8L1126,471z"/>
</g>
<g id="filter" display="none">
	<polygon display="inline" points="845,62.5 655,62.5 312.5,62.5 312.2,145.5 654.8,499.8 654.8,740.8 845,937.5 845,500 
		1187.2,145.5 1187.5,62.5 	"/>
</g>
<g id="place" display="none">
	<path display="inline" d="M750,62.5c-161.2,0-291.8,130.8-291.8,291.8c0,53.5,14.5,103.8,39.8,147l252,436l252.5-436l0.2-1.2
		c24.8-42.8,39-92.5,39-145.8C1041.8,193.2,911.2,62.5,750,62.5z M751,564.5c-113.5,0-205.5-94-205.5-210s92-210,205.5-210
		s205.5,94,205.5,210C956.5,470.2,864.5,564.5,751,564.5z"/>
	<circle display="inline" cx="750" cy="353.2" r="127.7"/>
</g>
<g id="tag" display="none">
	<circle display="inline" fill="none" cx="990.5" cy="297" r="82.7"/>
	<path display="inline" d="M1150,409V100H841L350,591l309,309L1150,409z M953,214c45.8,0,82.8,37,82.8,82.8s-37,82.7-82.8,82.7
		c-45.7,0-82.8-37-82.8-82.8C870.2,251.2,907.2,214,953,214z"/>
</g>
<g id="viewed" display="none">
	<circle display="inline" cx="750" cy="500" r="122.5"/>
	<path display="inline" d="M750,249.2c-209.2,0-385.5,106.2-438.5,250.8c53,144.5,229.2,250.8,438.5,250.8s385.5-106.2,438.5-250.8
		C1135.5,355.5,959.2,249.2,750,249.2z M750,698.8c-109.8,0-198.8-89-198.8-198.8s89-198.8,198.8-198.8s198.8,89,198.8,198.8
		S859.8,698.8,750,698.8z"/>
</g>
<g id="web" display="none">
	<circle display="inline" cx="750" cy="500" r="437.5"/>
</g>
<g id="plus" display="none">
	<rect x="402" y="551.5" display="inline" fill="none" width="293.5" height="293.5"/>
	<rect x="402" y="149" display="inline" fill="none" width="293.5" height="293.5"/>
	<rect x="804.5" y="149" display="inline" fill="none" width="293.5" height="293.5"/>
	<rect x="804.5" y="551.5" display="inline" fill="none" width="293.5" height="293.5"/>
	<polygon display="inline" points="1098,551.5 1098,442.5 804.5,442.5 804.5,149 695.5,149 695.5,442.5 402,442.5 402,551.5 
		695.5,551.5 695.5,844.8 804.5,844.8 804.5,551.5 	"/>
</g>
<g id="close" display="none">
	<polygon display="inline" points="1098,226.2 1020.8,149 750,419.8 479.2,149 402,226.2 672.8,497 402,767.8 479.2,844.8 750,574 
		1020.8,844.8 1098,767.8 827.2,497 	"/>
</g>
<g id="down" display="none">
	<polygon display="inline" points="1020.8,287.5 750,558.2 479.2,287.5 402,364.5 672.8,635.5 750,712.5 827.2,635.5 1098,364.5 	
		"/>
</g>
<g id="up" display="none">
	<polygon display="inline" points="479.2,712.5 750,441.8 1020.8,712.5 1098,635.5 827.2,364.5 750,287.5 672.8,364.5 402,635.5 	
		"/>
</g>
<g id="dropdown" display="none">
	<polygon display="inline" points="750,422.8 595.8,422.8 672.8,500 750,577.2 827.2,500 904.2,422.8 	"/>
</g>
<g id="posts" display="none">
	<path display="inline" d="M862.5,625h-225c-7,0-12.5-5.5-12.5-12.5v-225c0-7,5.5-12.5,12.5-12.5h225c7,0,12.5,5.5,12.5,12.5v225
		C875,619.5,869.5,625,862.5,625z"/>
	<path display="inline" d="M862.5,314.2h-225c-7,0-12.5-5.5-12.5-12.5v-225c0-7,5.5-12.5,12.5-12.5h225c7,0,12.5,5.5,12.5,12.5v225
		C875,308.8,869.5,314.2,862.5,314.2z"/>
	<path display="inline" d="M1173.2,314.2h-225c-7,0-12.5-5.5-12.5-12.5v-225c0-7,5.5-12.5,12.5-12.5h225c7,0,12.5,5.5,12.5,12.5v225
		C1185.8,308.8,1180,314.2,1173.2,314.2z"/>
	<path display="inline" d="M1173.2,625h-225c-7,0-12.5-5.5-12.5-12.5v-225c0-7,5.5-12.5,12.5-12.5h225c7,0,12.5,5.5,12.5,12.5v225
		C1185.8,619.5,1180,625,1173.2,625z"/>
	<path display="inline" d="M1173.2,935.8h-225c-7,0-12.5-5.5-12.5-12.5v-225c0-7,5.5-12.5,12.5-12.5h225c7,0,12.5,5.5,12.5,12.5v225
		C1185.8,930,1180,935.8,1173.2,935.8z"/>
	<path display="inline" d="M862.5,935.8h-225c-7,0-12.5-5.5-12.5-12.5v-225c0-7,5.5-12.5,12.5-12.5h225c7,0,12.5,5.5,12.5,12.5v225
		C875,930,869.5,935.8,862.5,935.8z"/>
	<path display="inline" d="M551.8,625h-225c-7,0-12.5-5.5-12.5-12.5v-225c0-7,5.5-12.5,12.5-12.5h225c7,0,12.5,5.5,12.5,12.5v225
		C564.2,619.5,558.8,625,551.8,625z"/>
	<path display="inline" d="M551.8,314.2h-225c-7,0-12.5-5.5-12.5-12.5v-225c0-7,5.5-12.5,12.5-12.5h225c7,0,12.5,5.5,12.5,12.5v225
		C564.2,308.8,558.8,314.2,551.8,314.2z"/>
	<path display="inline" d="M551.8,935.8h-225c-7,0-12.5-5.5-12.5-12.5v-225c0-7,5.5-12.5,12.5-12.5h225c7,0,12.5,5.5,12.5,12.5v225
		C564.2,930,558.8,935.8,551.8,935.8z"/>
</g>
<g id="products" display="none">
	<g display="inline">
		<polygon points="1128.8,426.8 1178.8,159.8 599.2,159.8 546.8,100.5 321.2,100.5 321.2,159.8 442.8,159.8 442.8,433 442.8,557.8 
			442.8,626.8 442.8,718 533.8,718 1178.8,718 1178.8,626.8 533.8,626.8 533.8,541.5 		"/>
		<circle cx="1110.8" cy="831.5" r="68"/>
		<circle cx="510.8" cy="831.2" r="68"/>
	</g>
</g>
<g id="logo" display="none">
	<g display="inline">
		<path d="M1122.8,127.2c0,0-111.8-3.2-223.5,52.8c-34.2,15.5-71.5,40.2-102.5,71.5C746.5,301.8,668.5,394,607.2,468.8H470.8l-62,93
			L514,590.2c0.2,3.8,1.2,9,4.2,16.2l-16.2,36c0,0-6.2,12.5,40.2,62c49.8,49.7,65.2,43.5,65.2,43.5l38.5-17.5
			c5.8,1.8,10,2.5,12.8,2.5L688,841.2l93-62V638.7c75.2-60.8,167.5-137.2,217.2-185.5c31-31,55.8-68.2,74.5-102.5
			C1125.8,239,1122.8,127.2,1122.8,127.2z M905.2,406.8c-34.2,0-62-28-62-62c0-34.2,28-62,62-62c34.3,0,62,28,62,62
			C967.5,378.8,939.5,406.8,905.2,406.8z M579.5,779.2c6.2,3.2,9.2,6.2,15.5,9.3c-6.2,6.2-12.5,15.5-18.8,21.8
			c-71.5,71.5-198.5,62-198.5,62s-9.2-127.2,62-198.5c6.2-6.2,15.5-12.5,21.7-18.8c3,6.2,6.2,9.3,9.2,15.5
			c-46.5,59-40.2,149-40.2,149S520.5,825.8,579.5,779.2z"/>
	</g>
</g>
<path d="M1079,238.2l-42.5-24.5L812.2,84.2c-38.5-22.2-86-22.2-124.5,0L421,238.2c-38.5,22.2-62.2,63.2-62.2,107.8v308
	c0,44.5,23.8,85.5,62.2,107.8l42.5,24.5l224.2,129.5c38.5,22.2,86,22.2,124.5,0l266.8-154c38.5-22.2,62.2-63.2,62.2-107.8V346
	C1141.2,301.5,1117.5,260.5,1079,238.2z M863.3,355.1L863.3,355.1c12.6,6.5,17.6,22.2,11.1,34.8L833,469.9
	c-6.5,12.6-22.2,17.6-34.8,11.1h0c-12.6-6.5-17.6-22.2-11.1-34.8l41.3-80.1C835,353.6,850.7,348.6,863.3,355.1z M766.3,321.2
	c6.3-12.1,21.3-16.9,33.4-10.6l1.8,1c12.1,6.3,16.9,21.3,10.6,33.4l-28,54.2c-5.2-18.2-21.6-31.8-41.2-32.7L766.3,321.2z
	 M685.6,316.3c6.3-12.1,21.3-16.9,33.4-10.6l1.8,1c12.1,6.3,16.9,21.3,10.6,33.4l-13.6,26.3h-58.1L685.6,316.3z M873,592.2
	l-11.2,33.2h0c-1.2,5.8-4,11.2-8.4,15.7L834,660.4v43.8H634v-78.8l-50-58.1l0,0c-6.6-7.9-10.6-18.1-10.6-29.2c0-4.5,0.7-8.9,1.9-13
	l0,0l33.1-119.8c6.3-13.6,19.1-23.6,34.5-25.9h13.8h69.7c17,0,30.9,13.9,30.9,30.9c0,17-13.9,30.9-30.9,30.9h-34.2H668
	c0.2,8.1,6.8,14.7,15,14.7h51.2h23.9h1.8c0.9,29.7,25.1,53.5,55,53.5c0.1,0,0.1,0,0.2,0v0.1h5.2c0.7,17.8,13,33.3,31.2,42
	c9.6,4.6,20.8,7.2,32.8,7.3L873,592.2z M923.8,461.1l-29.3,56.8c-6.5,12.6-22.2,17.6-34.8,11.1h0c-12.6-6.5-17.6-22.2-11.1-34.8
	l29.3-56.8c6.5-12.6,22.2-17.6,34.8-11.1S930.3,448.5,923.8,461.1z"/>
<path d="M635.8,440.8h1.1C636.5,440.8,636.2,440.8,635.8,440.8L635.8,440.8z"/>
</svg>
