<?xml version="1.0" encoding="utf-8"?>
<!-- Generator: Adobe Illustrator 18.0.0, SVG Export Plug-In . SVG Version: 6.00 Build 0)  -->
<!DOCTYPE svg PUBLIC "-//W3C//DTD SVG 1.1//EN" "http://www.w3.org/Graphics/SVG/1.1/DTD/svg11.dtd">
<svg version="1.1" xmlns="http://www.w3.org/2000/svg" xmlns:xlink="http://www.w3.org/1999/xlink" x="0px" y="0px"
	 viewBox="0 0 1500 1000" enable-background="new 0 0 1500 1000" xml:space="preserve">
<g id="Layer_2">
</g>
<g id="Layer_3">
	<g>
		<path id="XMLID_3_" d="M838.5,455.1L838.5,455.1c-25.2-13-35.2-44.3-22.2-69.5l82.6-159.9c13-25.2,44.3-35.2,69.5-22.2l0,0
			c25.2,13,35.2,44.3,22.2,69.5l-82.6,159.9C894.9,458.1,863.7,468.1,838.5,455.1z"/>
		<path id="XMLID_2_" d="M961.2,550.8L961.2,550.8c-25.2-13-35.2-44.3-22.2-69.5l58.6-113.4c13-25.2,44.3-35.2,69.5-22.2l0,0
			c25.2,13,35.2,44.3,22.2,69.5l-58.6,113.4C1017.6,553.9,986.3,563.8,961.2,550.8z"/>
		<path d="M845,116.5l-3.7-1.9c-24.2-12.5-54.2-2.9-66.7,21.3L728.1,226c39.2,1.8,72,29,82.3,65.4l55.9-108.3
			C878.8,159,869.2,129,845,116.5z"/>
		<path d="M705.1,173.3c12.5-24.2,2.9-54.2-21.3-66.7l-3.7-1.9C656,92.3,626,101.9,613.5,126l-51.5,99.8h116L705.1,173.3z"/>
		<path fill="none" d="M514,374.8h2.3c-0.7,0-1.5,0-2.3-0.1V374.8z"/>
		<path d="M944.9,595.1c-36.3-17.3-61-48.2-62.3-83.8h-10.5v-0.2c-0.1,0-0.2,0-0.4,0c-59.7,0-108.2-47.6-109.9-106.9h-3.5h-47.8
			H608.3c-16.4,0-29.6-13.1-30-29.3h48.2h68.3c33.9,0,61.6-27.7,61.6-61.6c0-33.9-27.7-61.6-61.6-61.6H555.5h-27.5
			c-30.7,4.7-56.3,24.6-68.9,51.8l-66.1,239.4l0-0.1c-2.5,8.3-3.8,17-3.8,26c0,22.2,8,42.6,21.2,58.4l0,0l99.9,116.1v157.4h399.5
			v-87.4l38.7-38.7c8.9-8.9,14.5-19.8,16.8-31.3h0l22.4-66.3l22.7-67.3C986.5,609.6,964.1,604.3,944.9,595.1z M514,374.8v-0.1
			c0.7,0.1,1.5,0.1,2.3,0.1H514z"/>
	</g>
</g>
</svg>
