<?xml version="1.0" encoding="utf-8"?>
<!-- Generator: Adobe Illustrator 18.0.0, SVG Export Plug-In . SVG Version: 6.00 Build 0)  -->
<!DOCTYPE svg PUBLIC "-//W3C//DTD SVG 1.1//EN" "http://www.w3.org/Graphics/SVG/1.1/DTD/svg11.dtd">
<svg version="1.1" xmlns="http://www.w3.org/2000/svg" xmlns:xlink="http://www.w3.org/1999/xlink" x="0px" y="0px"
	 viewBox="0 0 450 400" enable-background="new 0 0 450 400" xml:space="preserve">
<g id="frame" display="none">
	<rect x="50" y="25" display="inline" fill="#E0E0E0" width="350" height="350"/>
</g>
<g id="heart" display="none">
	<path display="inline" d="M375.4,188.4c15.2-15.7,24.6-37.2,24.6-60.8c0-48.3-39.2-87.5-87.5-87.5S225,79.2,225,127.6
		c0-48.3-39.2-87.5-87.5-87.5S50,79.2,50,127.6c0,22.7,8.6,43.3,22.8,58.9L225,359.9L375.4,188.4z"/>
</g>
<g id="filter" display="none">
	<polygon display="inline" points="263,25 187,25 50,25 49.9,58.2 186.9,199.9 186.9,296.3 263,375 263,200 399.9,58.2 400,25 	"/>
</g>
<g id="place" display="none">
	<g display="inline">
		<path d="M225,12.5c-76.6,0-138.7,62.1-138.7,138.7c0,25.5,6.9,49.3,18.9,69.9L225,387.5l120.1-166.4l0.2-0.6
			c11.8-20.4,18.5-44,18.5-69.3C363.7,74.6,301.6,12.5,225,12.5z M225.4,251.1c-54,0-97.8-44.7-97.8-99.9
			c0-55.2,43.8-99.9,97.8-99.9c54,0,97.8,44.7,97.8,99.9C323.2,206.4,279.4,251.1,225.4,251.1z"/>
		<circle cx="225" cy="150.7" r="60.7"/>
	</g>
</g>
<g id="refresh" display="none">
	<g display="inline">
		<path d="M140.3,252.3c-23.7-38.4-18.9-89.3,14.4-122.5s84.2-38,122.5-14.4l28.3-28.3C251.3,48.4,175.6,53.4,127,102
			c-25.3,25.3-38.7,57.8-40.4,90.9l-52.3,32.3L140.3,252.3z"/>
		<path d="M414.3,172.9l-105.8-27.1c21,32.2,21.4,73.9,1.3,106.5c-4,6.5-8.8,12.6-14.4,18.2c-33.9,33.9-86.1,38.2-124.7,13.1
			l-28.2,28.2c54.3,40.2,131.3,35.7,180.6-13.5c13.6-13.6,23.7-29.2,30.5-45.9c6.3-15.6,9.7-32.2,10.1-48.8L414.3,172.9z"/>
	</g>
</g>
<g id="max-size">
	<g>
		<path d="M385,311H65V89h320V311z M125,251h200V149H125V251z"/>
	</g>
	<rect x="125" y="149" fill="none" width="200" height="102"/>
	<polygon points="325,334.2 325,366 439,366 439,251 406.6,251 406.6,334.2 	"/>
	<polygon points="406.6,149 439,149 439,34 325,34 325,65.8 406.6,65.8 	"/>
	<polygon points="125,65.8 125,34 11,34 11,149 43.4,149 43.4,65.8 	"/>
	<polygon points="43.4,251 11,251 11,366 125,366 125,334.2 43.4,334.2 	"/>
</g>
<g id="search" display="none">
</g>
<g id="tag" display="none">
	<circle display="inline" fill="none" cx="321.2" cy="118.8" r="33.1"/>
	<path display="inline" d="M385,163.6V40H261.4L65,236.4L188.6,360L385,163.6z M306.2,85.6c18.3,0,33.1,14.8,33.1,33.1
		c0,18.3-14.8,33.1-33.1,33.1c-18.3,0-33.1-14.8-33.1-33.1C273.1,100.5,287.9,85.6,306.2,85.6z"/>
</g>
<g id="viewed" display="none">
	<path display="inline" d="M225,49.7c-83.7,0-179.2,92.5-200.4,150.3C45.8,257.8,141.3,350.3,225,350.3S404.2,257.8,425.4,200
		C404.2,142.2,308.7,49.7,225,49.7z M225,298.7c-54.5,0-98.7-44.2-98.7-98.7c0-54.5,44.2-98.7,98.7-98.7s98.7,44.2,98.7,98.7
		C323.7,254.5,279.5,298.7,225,298.7z"/>
	<circle display="inline" cx="225" cy="200" r="62.3"/>
</g>
<g id="web" display="none">
	<polygon display="inline" points="305.3,120.4 194,167.6 146.2,279.8 257.5,232.6 	"/>
	<path display="inline" d="M225,25c-96.6,0-175,78.4-175,175s78.4,175,175,175s175-78.4,175-175S321.6,25,225,25z M243.3,337.2
		v-31.6h-36.6v31.6c-61.6-8.1-110.5-56.8-118.8-118.4h32v-36.6H87.7c8-62,57-111.2,119-119.4v32.6h36.6V62.8
		c62,8.2,111,57.4,119,119.4h-32.2v36.6h32C353.8,280.4,304.9,329.1,243.3,337.2z"/>
</g>
<g id="plus" display="none">
	<rect x="85.8" y="220.6" display="inline" fill="none" width="117.4" height="117.4"/>
	<rect x="85.8" y="59.6" display="inline" fill="none" width="117.4" height="117.4"/>
	<rect x="246.8" y="59.6" display="inline" fill="none" width="117.4" height="117.4"/>
	<rect x="246.8" y="220.6" display="inline" fill="none" width="117.4" height="117.4"/>
	<polygon display="inline" points="364.2,220.6 364.2,177 246.8,177 246.8,59.6 203.2,59.6 203.2,177 85.8,177 85.8,220.6 
		203.2,220.6 203.2,337.9 246.8,337.9 246.8,220.6 	"/>
</g>
<g id="close" display="none">
	<polygon display="inline" points="364.2,90.5 333.3,59.6 225,167.9 116.7,59.6 85.8,90.5 194.1,198.8 85.8,307.1 116.7,337.9 
		225,229.6 333.3,337.9 364.2,307.1 255.9,198.8 	"/>
</g>
<g id="down" display="none">
	<polygon display="inline" points="333.3,115 225,223.3 116.7,115 85.8,145.8 194.1,254.2 225,285 255.9,254.2 364.2,145.8 	"/>
</g>
<g id="up" display="none">
	<polygon display="inline" points="116.7,285 225,176.7 333.3,285 364.2,254.2 255.9,145.8 225,115 194.1,145.8 85.8,254.2 	"/>
</g>
<g id="right" display="none">
	<polygon display="inline" points="140,91.7 248.3,200 140,308.3 170.8,339.2 279.2,230.9 310,200 279.2,169.1 170.8,60.8 	"/>
</g>
<g id="left" display="none">
	<polygon display="inline" points="310,308.3 201.7,200 310,91.7 279.2,60.8 170.8,169.1 140,200 170.8,230.9 279.2,339.2 	"/>
</g>
<g id="dropdown" display="none">
	<polygon display="inline" points="225,169.1 163.3,169.1 194.1,200 225,230.9 255.9,200 286.7,169.1 	"/>
</g>
<g id="posts" display="none">
	<path display="inline" d="M270,250h-90c-2.8,0-5-2.2-5-5v-90c0-2.8,2.2-5,5-5h90c2.8,0,5,2.2,5,5v90C275,247.8,272.8,250,270,250z"
		/>
	<path display="inline" d="M270,125.7h-90c-2.8,0-5-2.2-5-5v-90c0-2.8,2.2-5,5-5h90c2.8,0,5,2.2,5,5v90
		C275,123.5,272.8,125.7,270,125.7z"/>
	<path display="inline" d="M394.3,125.7h-90c-2.8,0-5-2.2-5-5v-90c0-2.8,2.2-5,5-5h90c2.8,0,5,2.2,5,5v90
		C399.3,123.5,397,125.7,394.3,125.7z"/>
	<path display="inline" d="M394.3,250h-90c-2.8,0-5-2.2-5-5v-90c0-2.8,2.2-5,5-5h90c2.8,0,5,2.2,5,5v90
		C399.3,247.8,397,250,394.3,250z"/>
	<path display="inline" d="M394.3,374.3h-90c-2.8,0-5-2.2-5-5v-90c0-2.8,2.2-5,5-5h90c2.8,0,5,2.2,5,5v90
		C399.3,372,397,374.3,394.3,374.3z"/>
	<path display="inline" d="M270,374.3h-90c-2.8,0-5-2.2-5-5v-90c0-2.8,2.2-5,5-5h90c2.8,0,5,2.2,5,5v90
		C275,372,272.8,374.3,270,374.3z"/>
	<path display="inline" d="M145.7,250h-90c-2.8,0-5-2.2-5-5v-90c0-2.8,2.2-5,5-5h90c2.8,0,5,2.2,5,5v90
		C150.7,247.8,148.5,250,145.7,250z"/>
	<path display="inline" d="M145.7,125.7h-90c-2.8,0-5-2.2-5-5v-90c0-2.8,2.2-5,5-5h90c2.8,0,5,2.2,5,5v90
		C150.7,123.5,148.5,125.7,145.7,125.7z"/>
	<path display="inline" d="M145.7,374.3h-90c-2.8,0-5-2.2-5-5v-90c0-2.8,2.2-5,5-5h90c2.8,0,5,2.2,5,5v90
		C150.7,372,148.5,374.3,145.7,374.3z"/>
</g>
<g id="products" display="none">
	<g display="inline">
		<polygon points="376.5,170.7 396.5,63.9 164.7,63.9 143.7,40.2 53.5,40.2 53.5,63.9 102.1,63.9 102.1,173.2 102.1,223.1 
			102.1,250.7 102.1,287.2 138.5,287.2 396.5,287.2 396.5,250.7 138.5,250.7 138.5,216.6 		"/>
		<circle cx="369.3" cy="332.6" r="27.2"/>
		<circle cx="129.3" cy="332.5" r="27.2"/>
	</g>
</g>
<g id="logo" display="none">
	<g display="inline">
		<path d="M374.1,50.9c0,0-44.7-1.3-89.4,21.1c-13.7,6.2-28.6,16.1-41,28.6c-20.1,20.1-51.3,57-75.8,86.9h-54.5l-24.8,37.2
			l42.1,11.4c0.1,1.5,0.5,3.6,1.7,6.5l-6.5,14.4c0,0-2.5,5,16.1,24.8c19.9,19.9,26.1,17.4,26.1,17.4l15.4-7c2.3,0.7,4,1,5.1,1
			l11.7,43.3l37.2-24.8v-56.2c30.1-24.3,67-54.9,86.9-74.2c12.4-12.4,22.3-27.3,29.8-41C375.3,95.6,374.1,50.9,374.1,50.9z
			 M287.1,162.7c-13.7,0-24.8-11.2-24.8-24.8c0-13.7,11.2-24.8,24.8-24.8c13.7,0,24.8,11.2,24.8,24.8
			C312,151.5,300.8,162.7,287.1,162.7z M156.8,311.7c2.5,1.3,3.7,2.5,6.2,3.7c-2.5,2.5-5,6.2-7.5,8.7
			c-28.6,28.6-79.4,24.8-79.4,24.8s-3.7-50.9,24.8-79.4c2.5-2.5,6.2-5,8.7-7.5c1.2,2.5,2.5,3.7,3.7,6.2
			c-18.6,23.6-16.1,59.6-16.1,59.6S133.2,330.3,156.8,311.7z"/>
	</g>
</g>
<g id="full_logo" display="none">
	<g display="inline">
		<path d="M258.2,154c-7.4,0-13.5,6-13.5,13.5c0,7.4,6,13.5,13.5,13.5c7.4,0,13.5-6.1,13.5-13.5C271.7,160,265.6,154,258.2,154z"/>
		<path d="M356.6,95.3l-17-9.8l-89.7-51.8c-15.4-8.9-34.4-8.9-49.8,0L93.4,95.3c-15.4,8.9-24.9,25.3-24.9,43.1v123.2
			c0,17.8,9.5,34.2,24.9,43.1l17,9.8l89.7,51.8c15.4,8.9,34.4,8.9,49.8,0l106.7-61.6c15.4-8.9,24.9-25.3,24.9-43.1V138.4
			C381.5,120.6,372,104.2,356.6,95.3z M186.9,268.3c-15.5,15.5-43,13.5-43,13.5s-2-27.6,13.5-43c1.3-1.4,3.4-2.7,4.7-4
			c0.7,1.3,1.3,2,2,3.4c-10.1,12.8-8.7,32.3-8.7,32.3s19.5,1.3,32.3-8.7c1.3,0.7,2,1.3,3.4,2C189.6,265,188.3,267,186.9,268.3z
			 M294.6,168.8c-4,7.4-9.4,15.5-16.1,22.2c-10.8,10.4-30.8,27-47.1,40.2v30.5L211.2,275l-6.3-23.5c-0.6,0-1.5-0.1-2.8-0.5l-8.4,3.8
			c0,0-3.4,1.4-14.1-9.4c-10.1-10.8-8.7-13.5-8.7-13.5l3.5-7.8c-0.6-1.6-0.8-2.7-0.9-3.5l-22.8-6.2l13.5-20.2h29.6
			c13.3-16.2,30.2-36.2,41.1-47.1c6.7-6.7,14.8-12.1,22.2-15.5c24.2-12.1,48.4-11.4,48.4-11.4S306,144.5,294.6,168.8z"/>
	</g>
</g>
</svg>
